<svg width="22" height="16" viewBox="0 0 22 16" fill="none" xmlns="http://www.w3.org/2000/svg">
<g clip-path="url(#clip0_1_1094)">
<path d="M17.7461 6.19531C17.1016 3.05859 14.3516 0.652344 11 0.652344C8.33594 0.652344 6.05859 2.15625 4.89844 4.39062C2.14844 4.64844 0 7.01172 0 9.84766C0 12.8555 2.44922 15.3477 5.5 15.3477H17.4023C19.9375 15.3477 22 13.2852 22 10.75C22 8.34375 20.1094 6.36719 17.7461 6.19531ZM17.4023 13.5H5.5C3.48047 13.5 1.84766 11.8672 1.84766 9.84766C1.84766 7.95703 3.22266 6.36719 5.11328 6.19531L6.05859 6.10938L6.53125 5.20703C7.39062 3.53125 9.10938 2.5 11 2.5C13.4062 2.5 15.4688 4.21875 15.9414 6.58203L16.1992 7.95703L17.6172 8.04297C19.0352 8.12891 20.1523 9.33203 20.1523 10.75C20.1523 12.2539 18.9492 13.5 17.4023 13.5ZM7.34766 8.90234H9.66797V11.6523H12.332V8.90234H14.6523L11 5.25L7.34766 8.90234Z" fill="#8083A3"/>
</g>
<defs>
<clipPath id="clip0_1_1094">
<rect width="22" height="16" fill="white"/>
</clipPath>
</defs>
</svg>
