<svg width="31" height="36" viewBox="0 0 31 36" fill="none" xmlns="http://www.w3.org/2000/svg">
<rect width="31" height="36" rx="4" fill="white"/>
<rect width="31" height="36" rx="4" fill="#5E81F4" fill-opacity="0.1"/>
<path d="M10.4764 10.54C10.5231 10.54 10.6631 10.5433 10.8964 10.55C11.1364 10.55 11.4264 10.55 11.7664 10.55C12.1064 10.5433 12.4597 10.5433 12.8264 10.55C13.1931 10.55 13.5297 10.5533 13.8364 10.56C15.6097 10.5867 17.0464 10.8767 18.1464 11.43C19.2531 11.9767 20.0631 12.7733 20.5764 13.82C21.0964 14.8667 21.3564 16.1533 21.3564 17.68C21.3564 19.28 21.0764 20.6233 20.5164 21.71C19.9631 22.7967 19.1164 23.6167 17.9764 24.17C16.8431 24.7233 15.3997 25 13.6464 25H10.4764V10.54ZM12.3764 12.13V23.41H13.6464C14.8397 23.41 15.8664 23.2267 16.7264 22.86C17.5864 22.4867 18.2464 21.8833 18.7064 21.05C19.1731 20.2167 19.4064 19.1033 19.4064 17.71C19.4064 16.3167 19.1797 15.2133 18.7264 14.4C18.2797 13.5867 17.6331 13.0067 16.7864 12.66C15.9397 12.3067 14.9197 12.13 13.7264 12.13H12.3764Z" fill="#5E81F4"/>
</svg>
