<svg width="31" height="36" viewBox="0 0 31 36" fill="none" xmlns="http://www.w3.org/2000/svg">
<rect width="31" height="36" rx="4" fill="white"/>
<rect width="31" height="36" rx="4" fill="#5E81F4" fill-opacity="0.1"/>
<path d="M15.386 25.2C14.1193 25.2 13.026 24.91 12.106 24.33C11.186 23.7433 10.4793 22.9 9.98602 21.8C9.49268 20.7 9.24602 19.37 9.24602 17.81C9.24602 16.2367 9.49602 14.8933 9.99602 13.78C10.5027 12.6667 11.2227 11.8167 12.156 11.23C13.0893 10.6367 14.1927 10.34 15.466 10.34C16.1927 10.34 16.876 10.4667 17.516 10.72C18.156 10.9733 18.7227 11.32 19.216 11.76C19.7093 12.1933 20.1027 12.69 20.396 13.25C20.696 13.81 20.866 14.3933 20.906 15H18.926C18.8327 14.4667 18.626 13.97 18.306 13.51C17.986 13.05 17.5793 12.68 17.086 12.4C16.5993 12.12 16.0493 11.98 15.436 11.98C14.6027 11.98 13.8693 12.1867 13.236 12.6C12.6093 13.0067 12.1193 13.6367 11.766 14.49C11.4193 15.3433 11.246 16.4367 11.246 17.77C11.246 18.7967 11.3527 19.6767 11.566 20.41C11.7793 21.1433 12.076 21.74 12.456 22.2C12.8427 22.6533 13.2927 22.99 13.806 23.21C14.326 23.4233 14.886 23.53 15.486 23.53C16.0927 23.53 16.6193 23.4233 17.066 23.21C17.5193 22.9967 17.896 22.7233 18.196 22.39C18.496 22.05 18.726 21.6867 18.886 21.3C19.0527 20.9067 19.1427 20.53 19.156 20.17L19.216 18.89H15.696V17.53L21.136 17.54V25H19.746V22.8C19.4927 23.2133 19.1727 23.6033 18.786 23.97C18.3993 24.3367 17.926 24.6333 17.366 24.86C16.8127 25.0867 16.1527 25.2 15.386 25.2Z" fill="#5E81F4"/>
</svg>
